<svg width="48" height="48" viewBox="0 0 48 48" fill="none" xmlns="http://www.w3.org/2000/svg">
<path fill-rule="evenodd" clip-rule="evenodd" d="M31 32.8889C31 33.5022 30.5211 34 29.9286 34C29.3361 34 28.8571 33.5022 28.8571 32.8889C28.8571 29.8256 26.4539 27.3333 23.5 27.3333C20.5461 27.3333 18.1429 29.8256 18.1429 32.8889C18.1429 33.5022 17.6639 34 17.0714 34C16.4789 34 16 33.5022 16 32.8889C16 28.6 19.3654 25.1111 23.5 25.1111C27.6346 25.1111 31 28.6 31 32.8889ZM23.5 16.2222C24.6818 16.2222 25.6429 17.2189 25.6429 18.4444C25.6429 19.67 24.6818 20.6667 23.5 20.6667C22.3182 20.6667 21.3571 19.67 21.3571 18.4444C21.3571 17.2189 22.3182 16.2222 23.5 16.2222ZM23.5 22.8889C25.8636 22.8889 27.7857 20.8956 27.7857 18.4444C27.7857 15.9933 25.8636 14 23.5 14C21.1364 14 19.2143 15.9933 19.2143 18.4444C19.2143 20.8956 21.1364 22.8889 23.5 22.8889Z" fill="white"/>
<rect x="16" y="32" width="15" height="2" rx="1" fill="white"/>
</svg>
