<svg width="48" height="48" viewBox="0 0 48 48" fill="none" xmlns="http://www.w3.org/2000/svg">
<path fill-rule="evenodd" clip-rule="evenodd" d="M31 31.5C31 32.329 30.328 33 29.5 33C28.672 33 28 32.329 28 31.5C28 30.671 28.672 30 29.5 30C30.328 30 31 30.671 31 31.5ZM21 31.5C21 32.329 20.328 33 19.5 33C18.672 33 18 32.329 18 31.5C18 30.671 18.672 30 19.5 30C20.328 30 21 30.671 21 31.5ZM28.382 26H20.764L19.127 20H31.382L28.382 26ZM33.083 18.948C32.716 18.354 32.08 18 31.382 18H18.582L17.965 15.737C17.846 15.302 17.451 15 17 15H15C14.447 15 14 15.448 14 16C14 16.552 14.447 17 15 17H16.236L19.035 27.263C19.154 27.698 19.549 28 20 28H29C29.379 28 29.725 27.786 29.895 27.447L33.171 20.894C33.483 20.269 33.45 19.542 33.083 18.948Z" fill="white"/>
</svg>
