<svg width="48" height="48" viewBox="0 0 48 48" fill="none" xmlns="http://www.w3.org/2000/svg">
<path fill-rule="evenodd" clip-rule="evenodd" d="M15.9482 18H32.0512C32.5732 18 33.0002 18.427 33.0002 18.949V19.051C33.0002 19.573 32.5732 20 32.0512 20H15.9482C15.4262 20 15.0002 19.573 15.0002 19.051V18.949C15.0002 18.427 15.4262 18 15.9482 18ZM32.0512 23H15.9482C15.4262 23 15.0002 23.427 15.0002 23.949V24.051C15.0002 24.573 15.4262 25 15.9482 25H32.0512C32.5732 25 33.0002 24.573 33.0002 24.051V23.949C33.0002 23.427 32.5732 23 32.0512 23ZM32.0512 28H15.9482C15.4262 28 15.0002 28.427 15.0002 28.949V29.051C15.0002 29.573 15.4262 30 15.9482 30H32.0512C32.5732 30 33.0002 29.573 33.0002 29.051V28.949C33.0002 28.427 32.5732 28 32.0512 28Z" fill="white"/>
</svg>
