<svg width="20" height="17" viewBox="0 0 20 17" fill="none" xmlns="http://www.w3.org/2000/svg">
<path fill-rule="evenodd" clip-rule="evenodd" d="M5.2198 2C4.3558 2 3.5458 2.334 2.9398 2.941C1.6818 4.201 1.6818 6.252 2.9408 7.514L9.9998 14.585L17.0598 7.514C18.3188 6.252 18.3188 4.201 17.0598 2.941C15.8478 1.726 13.7118 1.728 12.4998 2.941L10.7078 4.736C10.3318 5.113 9.6678 5.113 9.2918 4.736L7.4998 2.94C6.8938 2.334 6.0848 2 5.2198 2ZM9.9998 17C9.7348 17 9.4798 16.895 9.2928 16.706L1.5248 8.926C-0.511197 6.886 -0.511197 3.567 1.5248 1.527C2.5088 0.543 3.8208 0 5.2198 0C6.6188 0 7.9318 0.543 8.9148 1.527L9.9998 2.614L11.0848 1.528C12.0688 0.543 13.3808 0 14.7808 0C16.1788 0 17.4918 0.543 18.4748 1.527C20.5118 3.567 20.5118 6.886 18.4758 8.926L10.7078 16.707C10.5198 16.895 10.2658 17 9.9998 17Z" fill="black"/>
</svg>
