<svg width="20" height="17" viewBox="0 0 20 17" fill="none" xmlns="http://www.w3.org/2000/svg">
<path fill-rule="evenodd" clip-rule="evenodd" d="M5.21968 2C4.35568 2 3.54568 2.334 2.93968 2.941C1.68168 4.201 1.68168 6.252 2.94068 7.514L9.99968 14.585L17.0597 7.514C18.3187 6.252 18.3187 4.201 17.0597 2.941C15.8477 1.726 13.7117 1.728 12.4997 2.941L10.7077 4.736C10.3317 5.113 9.66768 5.113 9.29168 4.736L7.49968 2.94C6.89368 2.334 6.08468 2 5.21968 2ZM9.99968 17C9.73468 17 9.47968 16.895 9.29268 16.706L1.52468 8.926C-0.511319 6.886 -0.511319 3.567 1.52468 1.527C2.50868 0.543 3.82068 0 5.21968 0C6.61868 0 7.93168 0.543 8.91468 1.527L9.99968 2.614L11.0847 1.528C12.0687 0.543 13.3807 0 14.7807 0C16.1787 0 17.4917 0.543 18.4747 1.527C20.5117 3.567 20.5117 6.886 18.4757 8.926L10.7077 16.707C10.5197 16.895 10.2657 17 9.99968 17Z" fill="white"/>
</svg>
