<svg width="18" height="16" viewBox="0 0 18 16" fill="none" xmlns="http://www.w3.org/2000/svg">
<path fill-rule="evenodd" clip-rule="evenodd" d="M8.16675 13.8333C7.70675 13.8333 7.33342 13.46 7.33342 13C7.33342 12.54 7.70675 12.1667 8.16675 12.1667C8.62675 12.1667 9.00008 12.54 9.00008 13C9.00008 13.46 8.62675 13.8333 8.16675 13.8333ZM16.5001 12.1667H10.5126C10.1676 11.1992 9.25175 10.5 8.16675 10.5C7.08175 10.5 6.16591 11.1992 5.82091 12.1667H1.50008C1.03925 12.1667 0.666748 12.5392 0.666748 13C0.666748 13.4608 1.03925 13.8333 1.50008 13.8333H5.82091C6.16591 14.8008 7.08175 15.5 8.16675 15.5C9.25175 15.5 10.1676 14.8008 10.5126 13.8333H16.5001C16.9609 13.8333 17.3334 13.4608 17.3334 13C17.3334 12.5392 16.9609 12.1667 16.5001 12.1667ZM14.8334 8.83333C14.3734 8.83333 14.0001 8.46 14.0001 8C14.0001 7.54 14.3734 7.16667 14.8334 7.16667C15.2934 7.16667 15.6667 7.54 15.6667 8C15.6667 8.46 15.2934 8.83333 14.8334 8.83333ZM14.8334 5.5C13.7484 5.5 12.8326 6.19917 12.4876 7.16667H1.50008C1.03925 7.16667 0.666748 7.53917 0.666748 8C0.666748 8.46083 1.03925 8.83333 1.50008 8.83333H12.4876C12.8326 9.80083 13.7484 10.5 14.8334 10.5C16.2117 10.5 17.3334 9.37833 17.3334 8C17.3334 6.62167 16.2117 5.5 14.8334 5.5ZM4.83341 2.16667C5.29341 2.16667 5.66675 2.54 5.66675 3C5.66675 3.46 5.29341 3.83333 4.83341 3.83333C4.37341 3.83333 4.00008 3.46 4.00008 3C4.00008 2.54 4.37341 2.16667 4.83341 2.16667ZM1.50008 3.83333H2.48758C2.83258 4.80083 3.74841 5.5 4.83341 5.5C5.91841 5.5 6.83425 4.80083 7.17925 3.83333H16.5001C16.9609 3.83333 17.3334 3.46083 17.3334 3C17.3334 2.53917 16.9609 2.16667 16.5001 2.16667H7.17925C6.83425 1.19917 5.91841 0.5 4.83341 0.5C3.74841 0.5 2.83258 1.19917 2.48758 2.16667H1.50008C1.03925 2.16667 0.666748 2.53917 0.666748 3C0.666748 3.46083 1.03925 3.83333 1.50008 3.83333Z" fill="#131313"/>
</svg>
