<svg width="195" height="105" viewBox="0 0 195 105" fill="none" xmlns="http://www.w3.org/2000/svg">
<path d="M64.0465 52.5C64.0465 59.4035 58.6635 65 52.0233 65C45.383 65 40 59.4035 40 52.5C40 45.5965 45.383 40 52.0233 40C58.6635 40 64.0465 45.5965 64.0465 52.5Z" fill="#02B897"/>
<g filter="url(#filter0_d_2_2849)">
<path d="M64.0465 52.5C64.0465 59.4035 58.6635 65 52.0233 65C45.383 65 40 59.4035 40 52.5C40 45.5965 45.383 40 52.0233 40C58.6635 40 64.0465 45.5965 64.0465 52.5Z" fill="url(#paint0_linear_2_2849)"/>
</g>
<path d="M70.1028 43.6665H83.1658V47.0046H78.3718V61.3684H74.8714V47.0046H70.1028V43.6665Z" fill="black"/>
<path d="M86.6297 48.7242V50.899C86.9171 50.1066 87.4075 49.5081 88.1008 49.1035C88.7941 48.682 89.5889 48.4713 90.4852 48.4713V52.1128C89.4875 51.978 88.5912 52.1803 87.7965 52.7197C87.0186 53.2424 86.6297 54.1106 86.6297 55.3244V61.3684H83.3576V48.7242H86.6297Z" fill="black"/>
<path d="M100.769 55.552V48.7242H104.041V61.3684H100.769V59.9522C99.9914 61.1323 98.7316 61.7224 96.9899 61.7224C95.6033 61.7224 94.4534 61.2588 93.5402 60.3315C92.644 59.3874 92.1959 58.1062 92.1959 56.4877V48.7242H95.468V56.0831C95.468 56.9092 95.6878 57.5498 96.1275 58.005C96.584 58.4602 97.2013 58.6878 97.9791 58.6878C98.8415 58.6878 99.5179 58.4265 100.008 57.9039C100.516 57.3644 100.769 56.5804 100.769 55.552Z" fill="black"/>
<path d="M119.366 56.3866H109.803C110.226 57.9713 111.418 58.7637 113.379 58.7637C114.631 58.7637 115.578 58.3422 116.22 57.4992L118.858 59.0165C117.607 60.8205 115.764 61.7224 113.329 61.7224C111.232 61.7224 109.549 61.0902 108.281 59.8258C107.013 58.5614 106.379 56.9682 106.379 55.0463C106.379 53.1581 107.004 51.5733 108.256 50.2921C109.49 49.0108 111.097 48.3701 113.075 48.3701C114.952 48.3701 116.482 49.0108 117.666 50.2921C118.884 51.5733 119.492 53.1581 119.492 55.0463C119.492 55.4003 119.45 55.8471 119.366 56.3866ZM109.752 53.8577H116.22C116.034 53.0316 115.654 52.3994 115.079 51.9611C114.521 51.5228 113.853 51.3036 113.075 51.3036C112.196 51.3036 111.469 51.5312 110.894 51.9864C110.319 52.4247 109.938 53.0485 109.752 53.8577Z" fill="black"/>
<path d="M127.496 61.7224C125.754 61.7224 124.283 61.3346 123.082 60.5591C121.882 59.7836 121.028 58.7131 120.52 57.3475L123.513 55.6026C124.207 57.4065 125.568 58.3085 127.597 58.3085C128.544 58.3085 129.254 58.1399 129.728 57.8027C130.201 57.4655 130.438 57.0103 130.438 56.4371C130.438 55.8134 130.159 55.3329 129.601 54.9957C129.043 54.6417 128.045 54.2623 126.608 53.8577C125.052 53.3857 123.826 52.8378 122.93 52.214C121.814 51.3879 121.256 50.1741 121.256 48.5725C121.256 46.954 121.822 45.6812 122.955 44.7539C124.088 43.793 125.466 43.3125 127.09 43.3125C128.51 43.3125 129.77 43.6581 130.869 44.3493C131.968 45.0405 132.822 46.0183 133.431 47.2827L130.489 48.9771C129.779 47.4598 128.646 46.7011 127.09 46.7011C126.38 46.7011 125.813 46.8697 125.39 47.2069C124.968 47.5272 124.756 47.9487 124.756 48.4713C124.756 49.0276 124.985 49.4828 125.441 49.8369C125.948 50.1909 126.845 50.5618 128.13 50.9496L129.347 51.3542C129.567 51.4216 129.948 51.5649 130.489 51.7841C130.996 51.9695 131.368 52.1465 131.605 52.3151C132.433 52.8209 132.991 53.3435 133.279 53.883C133.719 54.5911 133.938 55.4256 133.938 56.3866C133.938 58.0219 133.338 59.32 132.137 60.281C130.937 61.2419 129.39 61.7224 127.496 61.7224Z" fill="black"/>
<path d="M142.952 48.7242V51.8599H140.086V57.1199C140.086 57.5583 140.196 57.8786 140.416 58.0809C140.635 58.2832 140.957 58.4012 141.379 58.4349C141.802 58.4518 142.326 58.4433 142.952 58.4096V61.3684C140.737 61.6212 139.156 61.4189 138.209 60.7614C137.279 60.0871 136.814 58.8732 136.814 57.1199V51.8599H134.607V48.7242H136.814V46.1701L140.086 45.1838V48.7242H142.952Z" fill="black"/>
<path d="M153.828 55.552V48.7242H157.1V61.3684H153.828V59.9522C153.05 61.1323 151.79 61.7224 150.048 61.7224C148.662 61.7224 147.512 61.2588 146.599 60.3315C145.702 59.3874 145.254 58.1062 145.254 56.4877V48.7242H148.526V56.0831C148.526 56.9092 148.746 57.5498 149.186 58.005C149.642 58.4602 150.26 58.6878 151.038 58.6878C151.9 58.6878 152.576 58.4265 153.067 57.9039C153.574 57.3644 153.828 56.5804 153.828 55.552Z" fill="black"/>
<path d="M169.71 50.2162V43.6665H172.982V61.3684H169.71V59.8764C168.746 61.1071 167.376 61.7224 165.601 61.7224C163.893 61.7224 162.43 61.0818 161.213 59.8005C160.012 58.5024 159.412 56.9176 159.412 55.0463C159.412 53.1918 160.012 51.6155 161.213 50.3174C162.43 49.0192 163.893 48.3701 165.601 48.3701C167.376 48.3701 168.746 48.9855 169.71 50.2162ZM163.673 57.6257C164.366 58.2832 165.212 58.6119 166.21 58.6119C167.224 58.6119 168.061 58.2832 168.721 57.6257C169.38 56.9513 169.71 56.0915 169.71 55.0463C169.71 54.001 169.38 53.1496 168.721 52.4922C168.061 51.8178 167.224 51.4806 166.21 51.4806C165.195 51.4806 164.35 51.8178 163.673 52.4922C163.014 53.1496 162.684 54.001 162.684 55.0463C162.684 56.0915 163.014 56.9513 163.673 57.6257Z" fill="black"/>
<path d="M177.598 47.2069C177.057 47.2069 176.583 47.013 176.177 46.6253C175.789 46.2206 175.594 45.7486 175.594 45.2091C175.594 44.6696 175.789 44.1976 176.177 43.793C176.583 43.3883 177.057 43.186 177.598 43.186C178.156 43.186 178.629 43.3883 179.018 43.793C179.424 44.1976 179.627 44.6696 179.627 45.2091C179.627 45.7486 179.424 46.2206 179.018 46.6253C178.629 47.013 178.156 47.2069 177.598 47.2069ZM179.247 61.3684H175.975V48.7242H179.247V61.3684Z" fill="black"/>
<path d="M193.047 59.8005C191.762 61.0818 190.172 61.7224 188.278 61.7224C186.384 61.7224 184.795 61.0818 183.51 59.8005C182.225 58.5192 181.582 56.9345 181.582 55.0463C181.582 53.1749 182.225 51.5986 183.51 50.3174C184.812 49.0192 186.401 48.3701 188.278 48.3701C190.155 48.3701 191.745 49.0192 193.047 50.3174C194.349 51.6155 195 53.1918 195 55.0463C195 56.9176 194.349 58.5024 193.047 59.8005ZM185.818 57.5498C186.477 58.2073 187.298 58.5361 188.278 58.5361C189.259 58.5361 190.079 58.2073 190.739 57.5498C191.398 56.8923 191.728 56.0578 191.728 55.0463C191.728 54.0347 191.398 53.2002 190.739 52.5427C190.079 51.8852 189.259 51.5565 188.278 51.5565C187.298 51.5565 186.477 51.8852 185.818 52.5427C185.175 53.2171 184.854 54.0516 184.854 55.0463C184.854 56.041 185.175 56.8755 185.818 57.5498Z" fill="black"/>
<defs>
<filter id="filter0_d_2_2849" x="0" y="0" width="104.046" height="105" filterUnits="userSpaceOnUse" color-interpolation-filters="sRGB">
<feFlood flood-opacity="0" result="BackgroundImageFix"/>
<feColorMatrix in="SourceAlpha" type="matrix" values="0 0 0 0 0 0 0 0 0 0 0 0 0 0 0 0 0 0 127 0" result="hardAlpha"/>
<feOffset/>
<feGaussianBlur stdDeviation="20"/>
<feComposite in2="hardAlpha" operator="out"/>
<feColorMatrix type="matrix" values="0 0 0 0 1 0 0 0 0 1 0 0 0 0 1 0 0 0 0.1 0"/>
<feBlend mode="normal" in2="BackgroundImageFix" result="effect1_dropShadow_2_2849"/>
<feBlend mode="normal" in="SourceGraphic" in2="effect1_dropShadow_2_2849" result="shape"/>
</filter>
<linearGradient id="paint0_linear_2_2849" x1="40" y1="65" x2="67.5213" y2="43.4757" gradientUnits="userSpaceOnUse">
<stop stop-color="#047B10"/>
<stop offset="1" stop-color="#3CCD09"/>
</linearGradient>
</defs>
</svg>
