<svg width="16" height="16" viewBox="0 0 16 16" fill="none" xmlns="http://www.w3.org/2000/svg">
<path fill-rule="evenodd" clip-rule="evenodd" d="M12.6667 7.33335H8.66675V3.33335C8.66675 2.96469 8.36808 2.66669 8.00008 2.66669C7.63208 2.66669 7.33341 2.96469 7.33341 3.33335V7.33335H3.33341C2.96541 7.33335 2.66675 7.63135 2.66675 8.00002C2.66675 8.36869 2.96541 8.66669 3.33341 8.66669H7.33341V12.6667C7.33341 13.0354 7.63208 13.3334 8.00008 13.3334C8.36808 13.3334 8.66675 13.0354 8.66675 12.6667V8.66669H12.6667C13.0347 8.66669 13.3334 8.36869 13.3334 8.00002C13.3334 7.63135 13.0347 7.33335 12.6667 7.33335Z" fill="#131313"/>
</svg>
