<svg width="16" height="16" viewBox="0 0 16 16" fill="none" xmlns="http://www.w3.org/2000/svg">
<path fill-rule="evenodd" clip-rule="evenodd" d="M5.24419 6.0657L8.70953 6.77037C8.97219 6.82303 9.17686 7.0277 9.23019 7.29037L9.93419 10.7557L12.2795 3.72037L5.24419 6.0657ZM9.77819 13.9997C9.76419 13.9997 9.75086 13.999 9.73753 13.9984C9.43619 13.9804 9.18486 13.7617 9.12419 13.4664L8.01153 7.98837L2.53419 6.87503C2.23819 6.81503 2.01953 6.5637 2.00153 6.26237C1.98286 5.96103 2.16953 5.68503 2.45553 5.5897L13.1222 2.03437C13.3622 1.95303 13.6262 2.01637 13.8049 2.19503C13.9835 2.3737 14.0455 2.6377 13.9662 2.8777L10.4102 13.5444C10.3189 13.8177 10.0635 13.9997 9.77819 13.9997Z" fill="#474747"/>
</svg>
