<svg width="14" height="12" viewBox="0 0 14 12" fill="none" xmlns="http://www.w3.org/2000/svg">
<path fill-rule="evenodd" clip-rule="evenodd" d="M1.16659 6.83335H11.0541L8.02659 10.4667C7.73159 10.82 7.77992 11.3459 8.13325 11.64C8.48742 11.935 9.01242 11.8867 9.30742 11.5334L13.4741 6.53335C13.5066 6.49419 13.5224 6.44835 13.5466 6.40502C13.5666 6.37002 13.5908 6.34002 13.6058 6.30169C13.6433 6.20585 13.6658 6.10502 13.6658 6.00335C13.6658 6.00252 13.6666 6.00085 13.6666 6.00002C13.6666 5.99919 13.6658 5.99752 13.6658 5.99669C13.6658 5.89502 13.6433 5.79419 13.6058 5.69835C13.5908 5.66002 13.5666 5.63002 13.5466 5.59502C13.5224 5.55169 13.5066 5.50585 13.4741 5.46669L9.30742 0.466687C9.14159 0.269187 8.90492 0.166687 8.66658 0.166687C8.47825 0.166687 8.28908 0.23002 8.13325 0.36002C7.77992 0.654187 7.73159 1.18002 8.02659 1.53335L11.0541 5.16669H1.16659C0.706585 5.16669 0.333252 5.54002 0.333252 6.00002C0.333252 6.46002 0.706585 6.83335 1.16659 6.83335Z" fill="#474747"/>
</svg>
